HIERARCHY
ROOT Hips
{
	OFFSET -3.958830 18.904000 13.208200
	CHANNELS 6 Xposition Yposition Zposition Zrotation Yrotation Xrotation 
	JOINT LHipJoint
	{
		OFFSET 0.000000 0.000000 0.000000
		CHANNELS 3 Zrotation Yrotation Xrotation
		JOINT LeftUpLeg
		{
			OFFSET 1.800000 -1.400000 0.085000
			CHANNELS 3 Zrotation Yrotation Xrotation
			JOINT LeftLeg
			{
				OFFSET 2.215000 -6.000000 0.000000
				CHANNELS 3 Zrotation Yrotation Xrotation
				JOINT LeftFoot
				{
					OFFSET 2.500000 -6.900000 0.000000
					CHANNELS 3 Zrotation Yrotation Xrotation
					JOINT LeftToeBase
					{
						OFFSET 0.200000 -0.500000 1.950000
						CHANNELS 3 Zrotation Yrotation Xrotation
						End Site
						{
							OFFSET 0.000000 0.000000 0.000000
						}
					}
				}
			}
		}
	}
	JOINT RHipJoint
	{
		OFFSET 0.000000 0.000000 0.000000
		CHANNELS 3 Zrotation Yrotation Xrotation
		JOINT RightUpLeg
		{
			OFFSET -1.800000 -1.400000 0.085000
			CHANNELS 3 Zrotation Yrotation Xrotation
			JOINT RightLeg
			{
				OFFSET -2.215000 -6.000000 0.000000
				CHANNELS 3 Zrotation Yrotation Xrotation
				JOINT RightFoot
				{
					OFFSET -2.500000 -6.900000 0.000000
					CHANNELS 3 Zrotation Yrotation Xrotation
					JOINT RightToeBase
					{
						OFFSET -0.200000 -0.500000 1.950000
						CHANNELS 3 Zrotation Yrotation Xrotation
						End Site
						{
							OFFSET 0.000000 0.000000 0.000000
						}
					}
				}
			}
		}
	}
	JOINT LowerBack
	{
		OFFSET 0.000000 0.000000 0.000000
		CHANNELS 3 Zrotation Yrotation Xrotation
		JOINT Spine
		{
			OFFSET -0.087000 1.940000 -0.288900
			CHANNELS 3 Zrotation Yrotation Xrotation
			JOINT Spine1
			{
				OFFSET 0.000000 1.950000 0.060000
				CHANNELS 3 Zrotation Yrotation Xrotation
				JOINT Neck
				{
					OFFSET 0.000000 0.000000 0.000000
					CHANNELS 3 Zrotation Yrotation Xrotation
					JOINT Neck1
					{
						OFFSET 0.000000 1.600000 0.340000
						CHANNELS 3 Zrotation Yrotation Xrotation
						JOINT Head
						{
							OFFSET 0.000000 1.667000 -0.240000
							CHANNELS 3 Zrotation Yrotation Xrotation
							End Site
							{
								OFFSET 0.000000 0.000000 0.000000
							}
						}
					}
				}
				JOINT LeftShoulder
				{
					OFFSET 0.000000 0.000000 0.000000
					CHANNELS 3 Zrotation Yrotation Xrotation
					JOINT LeftArm
					{
						OFFSET 2.700000 1.550000 -0.730000
						CHANNELS 3 Zrotation Yrotation Xrotation
						JOINT LeftForeArm
						{
							OFFSET 5.450000 0.000000 0.000000
							CHANNELS 3 Zrotation Yrotation Xrotation
							JOINT LeftHand
							{
								OFFSET 3.450000 0.000000 0.000000
								CHANNELS 3 Zrotation Yrotation Xrotation
								JOINT LeftHandIndex1
								{
									OFFSET 0.750000 0.000000 0.000000
									CHANNELS 3 Zrotation Yrotation Xrotation
									End Site
									{
										OFFSET 0.000000 0.000000 0.000000
									}
								}
							}
						}
					}
				}
				JOINT RightShoulder
				{
					OFFSET 0.000000 0.000000 0.000000
					CHANNELS 3 Zrotation Yrotation Xrotation
					JOINT RightArm
					{
						OFFSET -2.700000 1.550000 -0.730000
						CHANNELS 3 Zrotation Yrotation Xrotation
						JOINT RightForeArm
						{
							OFFSET -5.450000 0.000000 0.000000
							CHANNELS 3 Zrotation Yrotation Xrotation
							JOINT RightHand
							{
								OFFSET -3.450000 0.000000 0.000000
								CHANNELS 3 Zrotation Yrotation Xrotation
								JOINT RightHandIndex1
								{
									OFFSET -0.750000 0.000000 0.000000
									CHANNELS 3 Zrotation Yrotation Xrotation
									End Site
									{
										OFFSET 0.000000 0.000000 0.000000
									}
								}
							}
						}
					}
				}
			}
		}
	}
}
MOTION
Frames: 13
Frame Time: 0.016667
0.164270 16.939990 0.028710 -1.067823 -3.290107 9.540983 -14.732089 12.128270 2.781344 1.578410 -2.740401 -17.327208 -7.614893 5.286299 12.933303 -0.469136 3.622659 3.428276 0.281300 -0.178900 0.697010 18.735323 -11.777521 2.763084 -3.823293 1.698592 -18.010767 7.116760 -5.209439 14.270082 0.042234 -3.534544 3.062697 -0.009930 0.236580 0.427050 -4.845890 1.979971 -6.625604 15.772426 1.769167 0.489317 -12.684462 1.641688 5.478411 7.571527 6.287329 -7.305489 11.740082 -5.747546 20.875437 -10.578020 5.479790 1.443460 -15.117970 -1.708332 2.666545 -53.108419 -1.344360 -6.066471 -28.450729 -26.699996 4.107175 -4.135803 3.354003 0.067890 0.458220 -0.202670 -0.043210 -0.288300 -2.483225 3.605179 84.181538 5.530661 -6.130409 14.310742 15.288507 -0.922181 2.322646 -1.835168 -0.125430 -0.214070 -0.126510 -0.292420 
0.168780 16.940340 0.024780 -1.072000 -3.191758 9.510032 -14.712855 12.106339 2.787267 1.588177 -2.770818 -17.493723 -7.642187 5.323317 13.213971 -0.459700 3.597051 3.422858 0.292550 -0.152340 0.696710 18.749184 -11.814452 2.772647 -3.850336 1.664809 -17.982416 7.114066 -5.223819 14.242941 0.027302 -3.520640 3.074430 -0.008620 0.210720 0.417450 -4.893653 2.080867 -6.650850 16.095903 1.786987 0.632256 -12.900389 1.681869 5.607407 7.629174 6.707438 -7.483917 12.463637 -6.138195 21.355643 -10.444670 5.333110 1.056790 -14.399882 -1.815574 2.843548 -53.232086 -1.373654 -6.136025 -29.523375 -27.359829 4.518221 -4.102886 3.356664 0.082530 0.436430 -0.179160 -0.041300 -1.144724 -2.643328 3.779406 84.858886 5.609336 -6.199630 14.434747 15.478528 -0.888595 2.312827 -1.827888 -0.112310 -0.213260 -0.136790 -0.289630 
0.175560 16.939660 0.017590 -1.028468 -3.090578 9.463695 -14.688655 12.063088 2.801875 1.583700 -2.835046 -17.726972 -7.819200 5.398165 13.604137 -0.423404 3.558682 3.411823 0.336380 -0.088890 0.721190 18.766024 -11.863695 2.787443 -4.011227 1.614728 -17.989680 7.247028 -5.259438 14.125817 -0.011447 -3.499882 3.082945 -0.002750 0.154580 0.420840 -4.952965 2.237832 -6.691752 16.318898 1.857284 0.885683 -13.006766 1.751958 5.824488 7.724347 7.534288 -7.790735 13.943658 -6.915694 22.184572 -10.298430 5.141820 0.426580 -13.317461 -2.059501 3.147039 -53.421842 -1.529137 -6.195929 -31.311435 -28.414944 5.233152 -4.040170 3.387472 0.101790 0.395840 -0.124110 -0.027860 -2.422727 -2.919762 4.036123 85.697210 5.763970 -6.200964 14.706841 15.704903 -0.823475 2.306228 -1.836335 -0.070040 -0.230020 -0.174530 -0.281640 
0.182420 16.940810 0.001620 -0.972633 -3.053414 9.322173 -14.657149 12.022513 2.818163 1.618556 -2.911005 -17.951528 -7.974528 5.491138 14.139078 -0.385822 3.513326 3.391845 0.394230 -0.010000 0.767550 18.787340 -11.922720 2.803939 -4.185017 1.563936 -18.056987 7.328802 -5.294083 14.132475 -0.061450 -3.459941 3.083979 0.007100 0.069630 0.416490 -5.028211 2.405795 -6.744063 16.524759 1.893383 1.297875 -13.050744 1.807857 6.106343 7.775567 8.509996 -8.112919 15.769097 -7.885886 23.700853 -10.170210 4.909310 -0.498070 -12.283770 -2.442851 3.497426 -53.444958 -1.852105 -6.219376 -33.139357 -29.701942 6.076372 -3.951255 3.416083 0.136630 0.330760 -0.049670 -0.022360 -3.532321 -3.181386 4.246940 86.232495 6.133449 -5.971380 14.916626 15.879625 -0.726584 2.315112 -1.835622 -0.022390 -0.249890 -0.222570 -0.279700 
0.189110 16.940610 -0.014080 -1.176223 -2.973003 9.181224 -14.616841 11.980139 2.828589 1.975288 -2.958283 -18.154352 -8.305774 5.626125 14.562733 -0.309620 3.471126 3.375024 0.455310 0.075250 0.810980 18.816619 -11.976621 2.835157 -4.132990 1.527231 -18.048782 7.558126 -5.334824 14.081990 -0.113102 -3.424462 3.088586 0.009930 -0.018270 0.411760 -5.127079 2.577479 -6.811021 16.998314 1.858707 1.724098 -12.941496 1.773257 6.330694 7.729067 9.349926 -8.484819 17.491724 -9.119772 25.691699 -10.002410 4.403730 -0.769240 -11.368752 -2.793765 3.859713 -53.854914 -2.248874 -6.248138 -34.644495 -31.054194 6.930558 -3.850072 3.461457 0.149980 0.261980 0.024360 -0.006840 -4.345415 -3.348498 4.489903 86.182006 6.429859 -5.736444 15.283295 16.310834 -0.602235 2.346364 -1.851237 0.043140 -0.282420 -0.285800 -0.262260 
0.196070 16.939600 -0.033330 -1.456245 -3.013389 8.961836 -14.576360 11.953119 2.841048 2.427028 -2.997051 -18.350166 -8.636760 5.786999 15.043833 -0.255229 3.458854 3.345059 0.495880 0.136060 0.843530 18.843885 -12.020425 2.869522 -4.076941 1.501333 -17.985201 7.892380 -5.417482 14.079580 -0.159761 -3.390317 3.097055 0.006390 -0.098420 0.394520 -5.221320 2.705383 -6.888932 17.391609 1.867944 2.313447 -12.643042 1.810139 6.514150 7.592001 10.056273 -8.932464 19.175059 -10.356932 28.444464 -9.790660 3.866750 -1.122200 -10.520271 -3.196112 4.239453 -54.531349 -2.687875 -6.324331 -35.941949 -32.803156 7.850832 -3.754440 3.474601 0.182190 0.191410 0.093900 -0.002380 -4.892174 -3.347193 4.725381 85.802816 6.715324 -5.538076 15.436609 16.707138 -0.470469 2.377486 -1.829341 0.086970 -0.293760 -0.328000 -0.253540 
0.200130 16.939250 -0.056490 -1.771116 -3.187033 8.661817 -14.538837 11.943039 2.860823 2.949777 -3.036798 -18.480364 -9.065596 5.991260 15.571421 -0.213179 3.488308 3.299694 0.547300 0.193400 0.896740 18.868091 -12.052055 2.898152 -3.873263 1.487815 -17.884743 7.971438 -5.436211 14.100026 -0.210676 -3.329111 3.107411 0.004980 -0.184440 0.381850 -5.304067 2.778146 -6.970112 17.701073 1.837824 3.020790 -12.350858 1.839451 6.715296 7.454221 10.512028 -9.378295 20.651508 -11.578638 32.036245 -9.717370 3.426700 -1.604500 -9.772638 -3.508074 4.541412 -55.091016 -3.225983 -6.339937 -37.035557 -34.671271 8.776065 -3.657869 3.481302 0.231960 0.115230 0.168220 -0.002660 -5.288596 -3.257841 4.925217 85.393226 7.091441 -5.290734 15.477839 17.031034 -0.340607 2.407122 -1.800168 0.125490 -0.302180 -0.368900 -0.257240 
0.202040 16.938630 -0.078130 -2.052704 -3.380235 8.210444 -14.509498 11.964599 2.886453 3.468164 -3.065112 -18.455718 -9.527958 6.220466 16.122296 -0.179677 3.540869 3.233418 0.607000 0.257110 0.957620 18.882470 -12.063123 2.915040 -3.769002 1.440251 -17.610752 8.081102 -5.486042 14.199087 -0.265543 -3.282184 3.102563 0.010380 -0.284220 0.371600 -5.359843 2.750141 -7.051563 17.879250 1.682826 3.839402 -12.103076 1.783319 6.957058 7.287741 10.531079 -9.776505 21.458909 -12.600737 36.570728 -9.710510 3.105760 -2.335690 -9.157799 -3.627443 4.726991 -55.550305 -3.825141 -6.289600 -38.007312 -36.582958 9.713133 -3.558591 3.492961 0.288980 0.031650 0.246040 -0.013820 -5.454394 -3.074348 5.070468 84.930165 7.493925 -5.115103 15.450939 17.454254 -0.217464 2.438191 -1.768597 0.166840 -0.318340 -0.404640 -0.268390 
0.203030 16.937230 -0.099150 -2.421467 -3.695084 7.799174 -14.484111 12.006550 2.920952 4.060147 -3.076971 -18.461662 -10.067862 6.480567 16.642731 -0.140119 3.612714 3.163916 0.657350 0.321690 0.991210 18.893099 -12.052192 2.929130 -3.482135 1.420236 -17.357012 8.014709 -5.482219 14.359117 -0.312254 -3.224641 3.102918 0.019480 -0.365090 0.358480 -5.402385 2.646879 -7.136268 18.159051 1.525559 4.702791 -11.922796 1.780381 7.119751 7.008718 10.032660 -10.099617 21.103543 -13.112307 41.569391 -9.368690 2.770090 -2.914400 -8.562307 -3.578415 4.777582 -56.027517 -4.603500 -6.081745 -38.771536 -38.274318 10.557152 -3.465416 3.508347 0.335480 -0.045220 0.313240 -0.017350 -5.425373 -2.691205 5.180717 84.408641 7.756300 -5.109015 15.299963 17.802220 -0.137261 2.473850 -1.738309 0.205010 -0.328440 -0.432950 -0.266630 
0.202490 16.932170 -0.117580 -2.790149 -3.962863 7.556136 -14.476142 12.054221 2.960156 4.724786 -3.125564 -18.643383 -10.649956 6.773698 17.194627 -0.115076 3.741791 3.091439 0.696680 0.357170 1.017720 18.893499 -11.998106 2.935550 -3.167457 1.451239 -17.230380 8.000466 -5.467608 14.480290 -0.338915 -3.175528 3.109786 0.028110 -0.410490 0.348990 -5.408608 2.455107 -7.203276 18.291574 1.375794 5.408013 -11.753176 1.780388 7.292682 6.696911 9.231757 -10.166418 19.614672 -12.951213 46.017969 -8.954340 2.547960 -3.079640 -8.018620 -3.206988 4.574704 -56.214329 -5.646129 -5.530745 -39.777398 -39.525382 11.419825 -3.404874 3.522023 0.373210 -0.095220 0.349430 -0.016150 -5.284058 -2.537427 5.184442 83.792061 7.683612 -5.337911 15.577946 18.191993 -0.038917 2.491985 -1.718658 0.222080 -0.329320 -0.450490 -0.270000 
0.199430 16.926680 -0.131690 -3.043651 -4.209695 7.312947 -14.487224 12.130149 3.010955 5.328760 -3.156473 -18.745888 -11.292018 7.051547 17.491561 -0.097536 3.883861 3.028188 0.711910 0.364220 1.025740 18.874672 -11.910175 2.933447 -2.949811 1.490924 -17.121977 8.086845 -5.499883 14.696376 -0.353443 -3.143688 3.122654 0.025520 -0.426290 0.336500 -5.360645 2.146663 -7.275770 18.095135 1.199262 6.171582 -11.549629 1.778628 7.371509 6.312742 8.197680 -10.184640 17.219123 -12.054823 50.223635 -8.578530 2.624120 -3.052170 -7.631492 -2.886673 4.325067 -56.132267 -6.690707 -4.905207 -40.792890 -40.622353 12.257324 -3.369001 3.517656 0.407910 -0.126460 0.366130 -0.015980 -4.900100 -2.217117 5.176932 83.129655 7.345780 -5.881039 15.847404 18.703618 0.036710 2.502070 -1.685920 0.222040 -0.314750 -0.450360 -0.273860 
0.197350 16.921320 -0.143630 -3.394779 -4.527193 7.062353 -14.508023 12.229509 3.081293 6.130799 -3.193273 -18.949714 -12.068377 7.408254 17.901872 -0.064164 4.064642 2.948332 0.726300 0.377620 1.025450 18.843339 -11.788622 2.936231 -2.714302 1.552866 -16.964097 8.379202 -5.582120 14.960348 -0.373801 -3.122965 3.130733 0.022640 -0.440310 0.325380 -5.279489 1.735133 -7.378179 17.903135 0.921516 7.182852 -11.392535 1.755251 7.278691 5.857930 6.818189 -10.199683 13.707332 -10.291880 54.091487 -8.023890 2.902840 -3.361280 -7.329280 -2.496712 4.039642 -56.102343 -7.676172 -4.324354 -41.580899 -41.760376 13.023914 -3.329297 3.517545 0.440570 -0.160500 0.386650 -0.012020 -4.385267 -1.722117 5.204963 82.258967 6.763330 -6.738967 16.360093 19.523127 0.141281 2.514618 -1.656574 0.226480 -0.300840 -0.450750 -0.270910 
0.196810 16.916560 -0.150310 -3.789199 -4.776644 6.829080 -14.544767 12.356540 3.155280 6.994907 -3.224828 -19.218289 -12.742400 7.778961 18.402008 -0.028833 4.270689 2.863180 0.725400 0.374870 1.014310 18.799533 -11.638527 2.927895 -2.384892 1.603846 -16.719222 8.498160 -5.623623 15.230814 -0.381636 -3.098543 3.140618 0.014240 -0.437020 0.315780 -5.158974 1.218441 -7.471304 17.570110 0.564249 8.194219 -11.102532 1.639811 7.108126 5.332113 5.096367 -10.069573 9.091197 -7.626228 56.987473 -7.416150 3.409050 -3.590350 -7.300721 -1.884141 3.661342 -55.977317 -8.590907 -3.718504 -42.355498 -42.926945 13.812970 -3.308282 3.518591 0.461030 -0.182210 0.392350 -0.012830 -3.480844 -1.286497 5.091810 80.887657 6.021815 -7.594200 17.210655 20.211917 0.306062 2.533637 -1.624804 0.225480 -0.285970 -0.439970 -0.265200 
